<svg width="104" height="104" viewBox="31 31 42 42" xmlns="http://www.w3.org/2000/svg">
  <title>fs-tools</title>
  <g id="group-hive"
     stroke-linecap="square" stroke-miterlimit="100"
     stroke="#98C379" stroke-width="1" fill="#3f3f3f"
  >
    <path id="hive-center"
          d="M52,52 m-10,-17 l20,0 l10,17 l-10,17 l-20,0 l-10,-17 l10,-17"
          transform="translate(0,0)"
    />
  </g>
  <g id="group-fs"
     stroke-linecap="square" stroke-miterlimit="100"
     stroke="#fefefe" stroke-width="1.25"
  >
    <path id="fs-f1"
          d="
          M52,52 m-4,-10
          a3,3,0,0,0,-3,5
          a15,15,0,0,1,0,18
          "
          fill="none"
    />
    <path id="fs-f2"
          d="
          M52,52 m-3,-4
          a2,3,-25,0,1,-7,0
          "
          fill="none"
    />
    <path id="fs-s1 >_"
          d="
          M52,52 m7,-4
          a6,6,0,0,0,-1,8
          a6,6,0,0,1,-2,8
          "
          fill="none"
    />
    <path id="fs-s2 >_"
          d="
          M52,52 m2,-2
          a4,4,0,0,0,0,4
          m7.5,-4
          a4,4,0,0,0,-1.5,4
          m-4.5,4
          a3,3,0,0,1,-1,3
          m7,-3
          a4,4,0,0,1,-1,4.5
          "
          fill="none"
    />
  </g>
</svg>