<svg width="64" height="64" viewBox="0 0 64 64" xmlns="http://www.w3.org/2000/svg">
  <rect width="64" height="64" fill="none"/>
  <rect x="22" y="7" width="1" height="1" fill="#f7971c"/>
  <rect x="23" y="7" width="1" height="1" fill="#f7971c"/>
  <rect x="24" y="7" width="1" height="1" fill="#f7971c"/>
  <rect x="21" y="8" width="1" height="1" fill="#f7971c"/>
  <rect x="22" y="8" width="1" height="1" fill="#f7971c"/>
  <rect x="23" y="8" width="1" height="1" fill="#f7971c"/>
  <rect x="24" y="8" width="1" height="1" fill="#f7971c"/>
  <rect x="25" y="8" width="1" height="1" fill="#f7971c"/>
  <rect x="26" y="8" width="1" height="1" fill="#f7971c"/>
  <rect x="21" y="9" width="1" height="1" fill="#f7971c"/>
  <rect x="26" y="9" width="1" height="1" fill="#f7971c"/>
  <rect x="20" y="10" width="1" height="1" fill="#f7971c"/>
  <rect x="21" y="10" width="1" height="1" fill="#f7971c"/>
  <rect x="27" y="10" width="1" height="1" fill="#f7971c"/>
  <rect x="20" y="11" width="1" height="1" fill="#f7971c"/>
  <rect x="20" y="12" width="1" height="1" fill="#f7971c"/>
  <rect x="21" y="12" width="1" height="1" fill="#f7971c"/>
  <rect x="20" y="13" width="1" height="1" fill="#f7971c"/>
  <rect x="21" y="13" width="1" height="1" fill="#f7971c"/>
  <rect x="20" y="14" width="1" height="1" fill="#f7971c"/>
  <rect x="21" y="14" width="1" height="1" fill="#f7971c"/>
  <rect x="20" y="15" width="1" height="1" fill="#f7971c"/>
  <rect x="21" y="15" width="1" height="1" fill="#f7971c"/>
  <rect x="21" y="16" width="1" height="1" fill="#f7971c"/>
  <rect x="22" y="16" width="1" height="1" fill="#f7971c"/>
  <rect x="21" y="17" width="1" height="1" fill="#f7971c"/>
  <rect x="22" y="17" width="1" height="1" fill="#f7971c"/>
  <rect x="16" y="18" width="1" height="1" fill="#f7971c"/>
  <rect x="17" y="18" width="1" height="1" fill="#f7971c"/>
  <rect x="18" y="18" width="1" height="1" fill="#f7971c"/>
  <rect x="19" y="18" width="1" height="1" fill="#f7971c"/>
  <rect x="20" y="18" width="1" height="1" fill="#f7971c"/>
  <rect x="21" y="18" width="1" height="1" fill="#f7971c"/>
  <rect x="22" y="18" width="1" height="1" fill="#f7971c"/>
  <rect x="23" y="18" width="1" height="1" fill="#f7971c"/>
  <rect x="24" y="18" width="1" height="1" fill="#f7971c"/>
  <rect x="25" y="18" width="1" height="1" fill="#f7971c"/>
  <rect x="26" y="18" width="1" height="1" fill="#f7971c"/>
  <rect x="27" y="18" width="1" height="1" fill="#f7971c"/>
  <rect x="34" y="18" width="1" height="1" fill="#f7971c"/>
  <rect x="35" y="18" width="1" height="1" fill="#f7971c"/>
  <rect x="36" y="18" width="1" height="1" fill="#f7971c"/>
  <rect x="37" y="18" width="1" height="1" fill="#f7971c"/>
  <rect x="38" y="18" width="1" height="1" fill="#f7971c"/>
  <rect x="17" y="19" width="1" height="1" fill="#f7971c"/>
  <rect x="18" y="19" width="1" height="1" fill="#f7971c"/>
  <rect x="19" y="19" width="1" height="1" fill="#f7971c"/>
  <rect x="20" y="19" width="1" height="1" fill="#f7971c"/>
  <rect x="21" y="19" width="1" height="1" fill="#f7971c"/>
  <rect x="22" y="19" width="1" height="1" fill="#f7971c"/>
  <rect x="23" y="19" width="1" height="1" fill="#f7971c"/>
  <rect x="24" y="19" width="1" height="1" fill="#f7971c"/>
  <rect x="25" y="19" width="1" height="1" fill="#f7971c"/>
  <rect x="26" y="19" width="1" height="1" fill="#f7971c"/>
  <rect x="33" y="19" width="1" height="1" fill="#f7971c"/>
  <rect x="34" y="19" width="1" height="1" fill="#f7971c"/>
  <rect x="38" y="19" width="1" height="1" fill="#f7971c"/>
  <rect x="39" y="19" width="1" height="1" fill="#f7971c"/>
  <rect x="22" y="20" width="1" height="1" fill="#f7971c"/>
  <rect x="23" y="20" width="1" height="1" fill="#f7971c"/>
  <rect x="32" y="20" width="1" height="1" fill="#f7971c"/>
  <rect x="33" y="20" width="1" height="1" fill="#f7971c"/>
  <rect x="40" y="20" width="1" height="1" fill="#f7971c"/>
  <rect x="22" y="21" width="1" height="1" fill="#f7971c"/>
  <rect x="23" y="21" width="1" height="1" fill="#f7971c"/>
  <rect x="32" y="21" width="1" height="1" fill="#f7971c"/>
  <rect x="22" y="22" width="1" height="1" fill="#f7971c"/>
  <rect x="23" y="22" width="1" height="1" fill="#f7971c"/>
  <rect x="32" y="22" width="1" height="1" fill="#f7971c"/>
  <rect x="22" y="23" width="1" height="1" fill="#f7971c"/>
  <rect x="23" y="23" width="1" height="1" fill="#f7971c"/>
  <rect x="32" y="23" width="1" height="1" fill="#f7971c"/>
  <rect x="33" y="23" width="1" height="1" fill="#f7971c"/>
  <rect x="22" y="24" width="1" height="1" fill="#f7971c"/>
  <rect x="23" y="24" width="1" height="1" fill="#f7971c"/>
  <rect x="24" y="24" width="1" height="1" fill="#f7971c"/>
  <rect x="33" y="24" width="1" height="1" fill="#f7971c"/>
  <rect x="34" y="24" width="1" height="1" fill="#f7971c"/>
  <rect x="35" y="24" width="1" height="1" fill="#f7971c"/>
  <rect x="23" y="25" width="1" height="1" fill="#f7971c"/>
  <rect x="24" y="25" width="1" height="1" fill="#f7971c"/>
  <rect x="34" y="25" width="1" height="1" fill="#f7971c"/>
  <rect x="35" y="25" width="1" height="1" fill="#f7971c"/>
  <rect x="36" y="25" width="1" height="1" fill="#f7971c"/>
  <rect x="37" y="25" width="1" height="1" fill="#f7971c"/>
  <rect x="38" y="25" width="1" height="1" fill="#f7971c"/>
  <rect x="39" y="25" width="1" height="1" fill="#f7971c"/>
  <rect x="23" y="26" width="1" height="1" fill="#f7971c"/>
  <rect x="24" y="26" width="1" height="1" fill="#f7971c"/>
  <rect x="37" y="26" width="1" height="1" fill="#f7971c"/>
  <rect x="38" y="26" width="1" height="1" fill="#f7971c"/>
  <rect x="39" y="26" width="1" height="1" fill="#f7971c"/>
  <rect x="40" y="26" width="1" height="1" fill="#f7971c"/>
  <rect x="23" y="27" width="1" height="1" fill="#f7971c"/>
  <rect x="24" y="27" width="1" height="1" fill="#f7971c"/>
  <rect x="39" y="27" width="1" height="1" fill="#f7971c"/>
  <rect x="40" y="27" width="1" height="1" fill="#f7971c"/>
  <rect x="41" y="27" width="1" height="1" fill="#f7971c"/>
  <rect x="23" y="28" width="1" height="1" fill="#f7971c"/>
  <rect x="24" y="28" width="1" height="1" fill="#f7971c"/>
  <rect x="40" y="28" width="1" height="1" fill="#f7971c"/>
  <rect x="41" y="28" width="1" height="1" fill="#f7971c"/>
  <rect x="23" y="29" width="1" height="1" fill="#f7971c"/>
  <rect x="24" y="29" width="1" height="1" fill="#f7971c"/>
  <rect x="40" y="29" width="1" height="1" fill="#f7971c"/>
  <rect x="41" y="29" width="1" height="1" fill="#f7971c"/>
  <rect x="23" y="30" width="1" height="1" fill="#f7971c"/>
  <rect x="24" y="30" width="1" height="1" fill="#f7971c"/>
  <rect x="40" y="30" width="1" height="1" fill="#f7971c"/>
  <rect x="41" y="30" width="1" height="1" fill="#f7971c"/>
  <rect x="23" y="31" width="1" height="1" fill="#f7971c"/>
  <rect x="24" y="31" width="1" height="1" fill="#f7971c"/>
  <rect x="40" y="31" width="1" height="1" fill="#f7971c"/>
  <rect x="41" y="31" width="1" height="1" fill="#f7971c"/>
  <rect x="23" y="32" width="1" height="1" fill="#f7971c"/>
  <rect x="24" y="32" width="1" height="1" fill="#f7971c"/>
  <rect x="29" y="32" width="1" height="1" fill="#f7971c"/>
  <rect x="30" y="32" width="1" height="1" fill="#f7971c"/>
  <rect x="37" y="32" width="1" height="1" fill="#f7971c"/>
  <rect x="38" y="32" width="1" height="1" fill="#f7971c"/>
  <rect x="39" y="32" width="1" height="1" fill="#f7971c"/>
  <rect x="40" y="32" width="1" height="1" fill="#f7971c"/>
  <rect x="23" y="33" width="1" height="1" fill="#f7971c"/>
  <rect x="24" y="33" width="1" height="1" fill="#f7971c"/>
  <rect x="30" y="33" width="1" height="1" fill="#f7971c"/>
  <rect x="31" y="33" width="1" height="1" fill="#f7971c"/>
  <rect x="35" y="33" width="1" height="1" fill="#f7971c"/>
  <rect x="36" y="33" width="1" height="1" fill="#f7971c"/>
  <rect x="37" y="33" width="1" height="1" fill="#f7971c"/>
  <rect x="38" y="33" width="1" height="1" fill="#f7971c"/>
  <rect x="24" y="34" width="1" height="1" fill="#f7971c"/>
  <rect x="31" y="34" width="1" height="1" fill="#f7971c"/>
  <rect x="32" y="34" width="1" height="1" fill="#f7971c"/>
  <rect x="34" y="34" width="1" height="1" fill="#f7971c"/>
  <rect x="35" y="34" width="1" height="1" fill="#f7971c"/>
  <rect x="36" y="34" width="1" height="1" fill="#f7971c"/>
  <rect x="47" y="34" width="1" height="1" fill="#5382a0"/>
  <rect x="48" y="34" width="1" height="1" fill="#5382a2"/>
  <rect x="49" y="34" width="1" height="1" fill="#5382a1"/>
  <rect x="50" y="34" width="1" height="1" fill="#5382a1"/>
  <rect x="18" y="35" width="1" height="1" fill="#5382a1"/>
  <rect x="19" y="35" width="1" height="1" fill="#5382a1"/>
  <rect x="24" y="35" width="1" height="1" fill="#f7971c"/>
  <rect x="32" y="35" width="1" height="1" fill="#f7971c"/>
  <rect x="33" y="35" width="1" height="1" fill="#f7971c"/>
  <rect x="34" y="35" width="1" height="1" fill="#f7971c"/>
  <rect x="50" y="35" width="1" height="1" fill="#5382a1"/>
  <rect x="51" y="35" width="1" height="1" fill="#5382a1"/>
  <rect x="16" y="36" width="1" height="1" fill="#5382a1"/>
  <rect x="17" y="36" width="1" height="1" fill="#5382a1"/>
  <rect x="18" y="36" width="1" height="1" fill="#5382a0"/>
  <rect x="23" y="36" width="1" height="1" fill="#f7971c"/>
  <rect x="50" y="36" width="1" height="1" fill="#5382a2"/>
  <rect x="51" y="36" width="1" height="1" fill="#5382a1"/>
  <rect x="52" y="36" width="1" height="1" fill="#5382a0"/>
  <rect x="14" y="37" width="1" height="1" fill="#5382a2"/>
  <rect x="15" y="37" width="1" height="1" fill="#5382a1"/>
  <rect x="16" y="37" width="1" height="1" fill="#5382a1"/>
  <rect x="17" y="37" width="1" height="1" fill="#5382a1"/>
  <rect x="18" y="37" width="1" height="1" fill="#5382a1"/>
  <rect x="20" y="37" width="1" height="1" fill="#f7971c"/>
  <rect x="21" y="37" width="1" height="1" fill="#f7971c"/>
  <rect x="22" y="37" width="1" height="1" fill="#f7971c"/>
  <rect x="37" y="37" width="1" height="1" fill="#5382a0"/>
  <rect x="38" y="37" width="1" height="1" fill="#5382a2"/>
  <rect x="39" y="37" width="1" height="1" fill="#5382a1"/>
  <rect x="40" y="37" width="1" height="1" fill="#5382a1"/>
  <rect x="41" y="37" width="1" height="1" fill="#5382a2"/>
  <rect x="51" y="37" width="1" height="1" fill="#5382a1"/>
  <rect x="52" y="37" width="1" height="1" fill="#5382a1"/>
  <rect x="16" y="38" width="1" height="1" fill="#5382a2"/>
  <rect x="17" y="38" width="1" height="1" fill="#5382a1"/>
  <rect x="18" y="38" width="1" height="1" fill="#5382a1"/>
  <rect x="19" y="38" width="1" height="1" fill="#5382a1"/>
  <rect x="20" y="38" width="1" height="1" fill="#5382a1"/>
  <rect x="21" y="38" width="1" height="1" fill="#5382a1"/>
  <rect x="22" y="38" width="1" height="1" fill="#5382a1"/>
  <rect x="23" y="38" width="1" height="1" fill="#5382a1"/>
  <rect x="24" y="38" width="1" height="1" fill="#5382a1"/>
  <rect x="25" y="38" width="1" height="1" fill="#5382a1"/>
  <rect x="26" y="38" width="1" height="1" fill="#5382a1"/>
  <rect x="27" y="38" width="1" height="1" fill="#5382a1"/>
  <rect x="28" y="38" width="1" height="1" fill="#5382a1"/>
  <rect x="29" y="38" width="1" height="1" fill="#5382a1"/>
  <rect x="30" y="38" width="1" height="1" fill="#5382a1"/>
  <rect x="31" y="38" width="1" height="1" fill="#5382a1"/>
  <rect x="32" y="38" width="1" height="1" fill="#5382a1"/>
  <rect x="33" y="38" width="1" height="1" fill="#5382a1"/>
  <rect x="34" y="38" width="1" height="1" fill="#5382a1"/>
  <rect x="35" y="38" width="1" height="1" fill="#5382a1"/>
  <rect x="36" y="38" width="1" height="1" fill="#5382a1"/>
  <rect x="37" y="38" width="1" height="1" fill="#5382a0"/>
  <rect x="51" y="38" width="1" height="1" fill="#5382a1"/>
  <rect x="52" y="38" width="1" height="1" fill="#5382a1"/>
  <rect x="50" y="39" width="1" height="1" fill="#5382a2"/>
  <rect x="51" y="39" width="1" height="1" fill="#5382a1"/>
  <rect x="52" y="39" width="1" height="1" fill="#5382a0"/>
  <rect x="50" y="40" width="1" height="1" fill="#5382a1"/>
  <rect x="51" y="40" width="1" height="1" fill="#5382a1"/>
  <rect x="49" y="41" width="1" height="1" fill="#5382a1"/>
  <rect x="50" y="41" width="1" height="1" fill="#5382a1"/>
  <rect x="19" y="42" width="1" height="1" fill="#5382a2"/>
  <rect x="20" y="42" width="1" height="1" fill="#5382a1"/>
  <rect x="48" y="42" width="1" height="1" fill="#5382a1"/>
  <rect x="49" y="42" width="1" height="1" fill="#5382a1"/>
  <rect x="19" y="43" width="1" height="1" fill="#5382a1"/>
  <rect x="20" y="43" width="1" height="1" fill="#5382a1"/>
  <rect x="21" y="43" width="1" height="1" fill="#5382a1"/>
  <rect x="22" y="43" width="1" height="1" fill="#5382a1"/>
  <rect x="23" y="43" width="1" height="1" fill="#5382a0"/>
  <rect x="24" y="43" width="1" height="1" fill="#5382a0"/>
  <rect x="25" y="43" width="1" height="1" fill="#5382a0"/>
  <rect x="33" y="43" width="1" height="1" fill="#5382a0"/>
  <rect x="34" y="43" width="1" height="1" fill="#5382a2"/>
  <rect x="35" y="43" width="1" height="1" fill="#5382a1"/>
  <rect x="36" y="43" width="1" height="1" fill="#5382a1"/>
  <rect x="37" y="43" width="1" height="1" fill="#5382a1"/>
  <rect x="38" y="43" width="1" height="1" fill="#5382a1"/>
  <rect x="39" y="43" width="1" height="1" fill="#5382a1"/>
  <rect x="47" y="43" width="1" height="1" fill="#5382a1"/>
  <rect x="20" y="44" width="1" height="1" fill="#5382a0"/>
  <rect x="21" y="44" width="1" height="1" fill="#5382a1"/>
  <rect x="22" y="44" width="1" height="1" fill="#5382a1"/>
  <rect x="23" y="44" width="1" height="1" fill="#5382a1"/>
  <rect x="24" y="44" width="1" height="1" fill="#5382a1"/>
  <rect x="25" y="44" width="1" height="1" fill="#5382a1"/>
  <rect x="26" y="44" width="1" height="1" fill="#5382a1"/>
  <rect x="27" y="44" width="1" height="1" fill="#5382a1"/>
  <rect x="28" y="44" width="1" height="1" fill="#5382a1"/>
  <rect x="29" y="44" width="1" height="1" fill="#5382a1"/>
  <rect x="30" y="44" width="1" height="1" fill="#5382a1"/>
  <rect x="31" y="44" width="1" height="1" fill="#5382a1"/>
  <rect x="32" y="44" width="1" height="1" fill="#5382a1"/>
  <rect x="33" y="44" width="1" height="1" fill="#5382a1"/>
  <rect x="34" y="44" width="1" height="1" fill="#5382a1"/>
  <rect x="35" y="44" width="1" height="1" fill="#5382a1"/>
  <rect x="36" y="44" width="1" height="1" fill="#5382a1"/>
  <rect x="37" y="44" width="1" height="1" fill="#5382a1"/>
  <rect x="38" y="44" width="1" height="1" fill="#5382a1"/>
  <rect x="45" y="44" width="1" height="1" fill="#5382a2"/>
  <rect x="24" y="45" width="1" height="1" fill="#5382a0"/>
  <rect x="25" y="45" width="1" height="1" fill="#5382a0"/>
  <rect x="26" y="45" width="1" height="1" fill="#5382a2"/>
  <rect x="27" y="45" width="1" height="1" fill="#5382a2"/>
  <rect x="28" y="45" width="1" height="1" fill="#5382a2"/>
  <rect x="29" y="45" width="1" height="1" fill="#5382a2"/>
  <rect x="30" y="45" width="1" height="1" fill="#5382a2"/>
  <rect x="31" y="45" width="1" height="1" fill="#5382a2"/>
  <rect x="32" y="45" width="1" height="1" fill="#5382a0"/>
  <rect x="21" y="48" width="1" height="1" fill="#5382a2"/>
  <rect x="22" y="48" width="1" height="1" fill="#5382a1"/>
  <rect x="21" y="49" width="1" height="1" fill="#5382a1"/>
  <rect x="22" y="49" width="1" height="1" fill="#5382a1"/>
  <rect x="23" y="49" width="1" height="1" fill="#5382a1"/>
  <rect x="24" y="49" width="1" height="1" fill="#5382a1"/>
  <rect x="25" y="49" width="1" height="1" fill="#5382a0"/>
  <rect x="26" y="49" width="1" height="1" fill="#5382a0"/>
  <rect x="33" y="49" width="1" height="1" fill="#5382a0"/>
  <rect x="34" y="49" width="1" height="1" fill="#5382a2"/>
  <rect x="35" y="49" width="1" height="1" fill="#5382a1"/>
  <rect x="36" y="49" width="1" height="1" fill="#5382a1"/>
  <rect x="37" y="49" width="1" height="1" fill="#5382a1"/>
  <rect x="22" y="50" width="1" height="1" fill="#5382a1"/>
  <rect x="23" y="50" width="1" height="1" fill="#5382a1"/>
  <rect x="24" y="50" width="1" height="1" fill="#5382a1"/>
  <rect x="25" y="50" width="1" height="1" fill="#5382a1"/>
  <rect x="26" y="50" width="1" height="1" fill="#5382a1"/>
  <rect x="27" y="50" width="1" height="1" fill="#5382a1"/>
  <rect x="28" y="50" width="1" height="1" fill="#5382a1"/>
  <rect x="29" y="50" width="1" height="1" fill="#5382a1"/>
  <rect x="30" y="50" width="1" height="1" fill="#5382a1"/>
  <rect x="31" y="50" width="1" height="1" fill="#5382a1"/>
  <rect x="32" y="50" width="1" height="1" fill="#5382a1"/>
  <rect x="33" y="50" width="1" height="1" fill="#5382a1"/>
  <rect x="34" y="50" width="1" height="1" fill="#5382a1"/>
  <rect x="35" y="50" width="1" height="1" fill="#5382a1"/>
  <rect x="36" y="50" width="1" height="1" fill="#5382a1"/>
  <rect x="37" y="50" width="1" height="1" fill="#5382a1"/>
  <rect x="38" y="50" width="1" height="1" fill="#5382a1"/>
  <rect x="39" y="50" width="1" height="1" fill="#5382a2"/>
  <rect x="24" y="51" width="1" height="1" fill="#5382a2"/>
  <rect x="25" y="51" width="1" height="1" fill="#5382a1"/>
  <rect x="26" y="51" width="1" height="1" fill="#5382a1"/>
  <rect x="27" y="51" width="1" height="1" fill="#5382a1"/>
  <rect x="28" y="51" width="1" height="1" fill="#5382a1"/>
  <rect x="29" y="51" width="1" height="1" fill="#5382a1"/>
  <rect x="30" y="51" width="1" height="1" fill="#5382a1"/>
  <rect x="31" y="51" width="1" height="1" fill="#5382a1"/>
  <rect x="32" y="51" width="1" height="1" fill="#5382a1"/>
  <rect x="33" y="51" width="1" height="1" fill="#5382a1"/>
  <rect x="34" y="51" width="1" height="1" fill="#5382a1"/>
  <rect x="35" y="51" width="1" height="1" fill="#5382a1"/>
  <rect x="36" y="51" width="1" height="1" fill="#5382a0"/>
  <rect x="14" y="52" width="1" height="1" fill="#5382a2"/>
  <rect x="15" y="52" width="1" height="1" fill="#5382a1"/>
  <rect x="11" y="53" width="1" height="1" fill="#5382a0"/>
  <rect x="12" y="53" width="1" height="1" fill="#5382a1"/>
  <rect x="13" y="53" width="1" height="1" fill="#5382a2"/>
  <rect x="10" y="54" width="1" height="1" fill="#5382a1"/>
  <rect x="11" y="54" width="1" height="1" fill="#5382a1"/>
  <rect x="12" y="54" width="1" height="1" fill="#5382a1"/>
  <rect x="48" y="54" width="1" height="1" fill="#5382a0"/>
  <rect x="49" y="54" width="1" height="1" fill="#5382a2"/>
  <rect x="9" y="55" width="1" height="1" fill="#5382a0"/>
  <rect x="10" y="55" width="1" height="1" fill="#5382a1"/>
  <rect x="11" y="55" width="1" height="1" fill="#5382a1"/>
  <rect x="12" y="55" width="1" height="1" fill="#5382a1"/>
  <rect x="13" y="55" width="1" height="1" fill="#5382a1"/>
  <rect x="14" y="55" width="1" height="1" fill="#5382a1"/>
  <rect x="15" y="55" width="1" height="1" fill="#5382a0"/>
  <rect x="45" y="55" width="1" height="1" fill="#5382a2"/>
  <rect x="46" y="55" width="1" height="1" fill="#5382a1"/>
  <rect x="11" y="56" width="1" height="1" fill="#5382a0"/>
  <rect x="12" y="56" width="1" height="1" fill="#5382a2"/>
  <rect x="13" y="56" width="1" height="1" fill="#5382a1"/>
  <rect x="14" y="56" width="1" height="1" fill="#5382a1"/>
  <rect x="15" y="56" width="1" height="1" fill="#5382a1"/>
  <rect x="16" y="56" width="1" height="1" fill="#5382a1"/>
  <rect x="17" y="56" width="1" height="1" fill="#5382a1"/>
  <rect x="18" y="56" width="1" height="1" fill="#5382a1"/>
  <rect x="19" y="56" width="1" height="1" fill="#5382a1"/>
  <rect x="20" y="56" width="1" height="1" fill="#5382a1"/>
  <rect x="21" y="56" width="1" height="1" fill="#5382a2"/>
  <rect x="22" y="56" width="1" height="1" fill="#5382a0"/>
  <rect x="23" y="56" width="1" height="1" fill="#5382a0"/>
  <rect x="24" y="56" width="1" height="1" fill="#5382a0"/>
  <rect x="34" y="56" width="1" height="1" fill="#5382a0"/>
  <rect x="35" y="56" width="1" height="1" fill="#5382a0"/>
  <rect x="36" y="56" width="1" height="1" fill="#5382a2"/>
  <rect x="37" y="56" width="1" height="1" fill="#5382a2"/>
  <rect x="38" y="56" width="1" height="1" fill="#5382a1"/>
  <rect x="39" y="56" width="1" height="1" fill="#5382a1"/>
  <rect x="40" y="56" width="1" height="1" fill="#5382a1"/>
  <rect x="41" y="56" width="1" height="1" fill="#5382a1"/>
  <rect x="42" y="56" width="1" height="1" fill="#5382a1"/>
  <rect x="43" y="56" width="1" height="1" fill="#5382a2"/>
  <rect x="18" y="57" width="1" height="1" fill="#5382a0"/>
  <rect x="19" y="57" width="1" height="1" fill="#5382a2"/>
  <rect x="20" y="57" width="1" height="1" fill="#5382a2"/>
  <rect x="21" y="57" width="1" height="1" fill="#5382a1"/>
  <rect x="22" y="57" width="1" height="1" fill="#5382a1"/>
  <rect x="23" y="57" width="1" height="1" fill="#5382a1"/>
  <rect x="24" y="57" width="1" height="1" fill="#5382a1"/>
  <rect x="25" y="57" width="1" height="1" fill="#5382a1"/>
  <rect x="26" y="57" width="1" height="1" fill="#5382a1"/>
  <rect x="27" y="57" width="1" height="1" fill="#5382a1"/>
  <rect x="28" y="57" width="1" height="1" fill="#5382a1"/>
  <rect x="29" y="57" width="1" height="1" fill="#5382a1"/>
  <rect x="30" y="57" width="1" height="1" fill="#5382a1"/>
  <rect x="31" y="57" width="1" height="1" fill="#5382a1"/>
  <rect x="32" y="57" width="1" height="1" fill="#5382a1"/>
  <rect x="33" y="57" width="1" height="1" fill="#5382a1"/>
  <rect x="34" y="57" width="1" height="1" fill="#5382a1"/>
  <rect x="35" y="57" width="1" height="1" fill="#5382a1"/>
  <rect x="36" y="57" width="1" height="1" fill="#5382a2"/>
  <rect x="37" y="57" width="1" height="1" fill="#5382a0"/>
  <rect x="50" y="57" width="1" height="1" fill="#5382a1"/>
  <rect x="46" y="58" width="1" height="1" fill="#5382a2"/>
  <rect x="47" y="58" width="1" height="1" fill="#5382a1"/>
  <rect x="48" y="58" width="1" height="1" fill="#5382a1"/>
  <rect x="19" y="59" width="1" height="1" fill="#5382a0"/>
  <rect x="40" y="59" width="1" height="1" fill="#5382a2"/>
  <rect x="41" y="59" width="1" height="1" fill="#5382a1"/>
  <rect x="42" y="59" width="1" height="1" fill="#5382a1"/>
  <rect x="43" y="59" width="1" height="1" fill="#5382a1"/>
  <rect x="44" y="59" width="1" height="1" fill="#5382a1"/>
  <rect x="45" y="59" width="1" height="1" fill="#5382a1"/>
  <rect x="23" y="60" width="1" height="1" fill="#5382a0"/>
  <rect x="24" y="60" width="1" height="1" fill="#5382a0"/>
  <rect x="25" y="60" width="1" height="1" fill="#5382a2"/>
  <rect x="26" y="60" width="1" height="1" fill="#5382a2"/>
  <rect x="27" y="60" width="1" height="1" fill="#5382a1"/>
  <rect x="28" y="60" width="1" height="1" fill="#5382a1"/>
  <rect x="29" y="60" width="1" height="1" fill="#5382a1"/>
  <rect x="30" y="60" width="1" height="1" fill="#5382a1"/>
  <rect x="31" y="60" width="1" height="1" fill="#5382a1"/>
  <rect x="32" y="60" width="1" height="1" fill="#5382a1"/>
  <rect x="33" y="60" width="1" height="1" fill="#5382a1"/>
  <rect x="34" y="60" width="1" height="1" fill="#5382a1"/>
  <rect x="35" y="60" width="1" height="1" fill="#5382a1"/>
  <rect x="36" y="60" width="1" height="1" fill="#5382a1"/>
  <rect x="37" y="60" width="1" height="1" fill="#5382a2"/>
  <rect x="38" y="60" width="1" height="1" fill="#5382a2"/>
  <rect x="39" y="60" width="1" height="1" fill="#5382a0"/>
</svg>