<svg width="32" height="32" viewBox="0 0 32 32" xmlns="http://www.w3.org/2000/svg">
  <rect width="32" height="32" fill="none"/>
  <rect x="11" y="3" width="1" height="1" fill="#f2911b"/>
  <rect x="11" y="4" width="1" height="1" fill="#f3911d"/>
  <rect x="12" y="4" width="1" height="1" fill="#f2911d"/>
  <rect x="10" y="5" width="1" height="1" fill="#f1901d"/>
  <rect x="10" y="6" width="1" height="1" fill="#f3921c"/>
  <rect x="10" y="7" width="1" height="1" fill="#f3921b"/>
  <rect x="10" y="8" width="1" height="1" fill="#f2911c"/>
  <rect x="11" y="8" width="1" height="1" fill="#f3911c"/>
  <rect x="8" y="9" width="1" height="1" fill="#f0921a"/>
  <rect x="9" y="9" width="1" height="1" fill="#f2931d"/>
  <rect x="10" y="9" width="1" height="1" fill="#f3921d"/>
  <rect x="11" y="9" width="1" height="1" fill="#f3921e"/>
  <rect x="12" y="9" width="1" height="1" fill="#f2931d"/>
  <rect x="13" y="9" width="1" height="1" fill="#f2921c"/>
  <rect x="17" y="9" width="1" height="1" fill="#f3921b"/>
  <rect x="19" y="9" width="1" height="1" fill="#f0901c"/>
  <rect x="11" y="10" width="1" height="1" fill="#f5941c"/>
  <rect x="16" y="10" width="1" height="1" fill="#f4921b"/>
  <rect x="11" y="11" width="1" height="1" fill="#f3921c"/>
  <rect x="16" y="11" width="1" height="1" fill="#f1901d"/>
  <rect x="11" y="12" width="1" height="1" fill="#f4921c"/>
  <rect x="12" y="12" width="1" height="1" fill="#f3921b"/>
  <rect x="17" y="12" width="1" height="1" fill="#f4921a"/>
  <rect x="18" y="12" width="1" height="1" fill="#f3921b"/>
  <rect x="19" y="12" width="1" height="1" fill="#f2911d"/>
  <rect x="11" y="13" width="1" height="1" fill="#f2911b"/>
  <rect x="12" y="13" width="1" height="1" fill="#f1901d"/>
  <rect x="19" y="13" width="1" height="1" fill="#f3921d"/>
  <rect x="20" y="13" width="1" height="1" fill="#f4931c"/>
  <rect x="11" y="14" width="1" height="1" fill="#f2911b"/>
  <rect x="12" y="14" width="1" height="1" fill="#f1901d"/>
  <rect x="20" y="14" width="1" height="1" fill="#f2931d"/>
  <rect x="11" y="15" width="1" height="1" fill="#f2911b"/>
  <rect x="12" y="15" width="1" height="1" fill="#f1901d"/>
  <rect x="20" y="15" width="1" height="1" fill="#f3921b"/>
  <rect x="12" y="16" width="1" height="1" fill="#f2911d"/>
  <rect x="15" y="16" width="1" height="1" fill="#f1901d"/>
  <rect x="18" y="16" width="1" height="1" fill="#f0921d"/>
  <rect x="19" y="16" width="1" height="1" fill="#f5931b"/>
  <rect x="12" y="17" width="1" height="1" fill="#f7971c"/>
  <rect x="16" y="17" width="1" height="1" fill="#f5931b"/>
  <rect x="17" y="17" width="1" height="1" fill="#f5931b"/>
  <rect x="25" y="17" width="1" height="1" fill="#5280a0"/>
  <rect x="8" y="18" width="1" height="1" fill="#5382a1"/>
  <rect x="9" y="18" width="1" height="1" fill="#5382a1"/>
  <rect x="10" y="18" width="1" height="1" fill="#f7971c"/>
  <rect x="11" y="18" width="1" height="1" fill="#f7971c"/>
  <rect x="25" y="18" width="1" height="1" fill="#53809f"/>
  <rect x="26" y="18" width="1" height="1" fill="#527f9d"/>
  <rect x="8" y="19" width="1" height="1" fill="#5382a1"/>
  <rect x="9" y="19" width="1" height="1" fill="#5382a1"/>
  <rect x="10" y="19" width="1" height="1" fill="#5382a1"/>
  <rect x="25" y="19" width="1" height="1" fill="#53809d"/>
  <rect x="26" y="19" width="1" height="1" fill="#507ea0"/>
  <rect x="25" y="20" width="1" height="1" fill="#537d9e"/>
  <rect x="10" y="21" width="1" height="1" fill="#517f9e"/>
  <rect x="11" y="21" width="1" height="1" fill="#517e9e"/>
  <rect x="12" y="21" width="1" height="1" fill="#527e9e"/>
  <rect x="17" y="21" width="1" height="1" fill="#517e9e"/>
  <rect x="18" y="21" width="1" height="1" fill="#517e9e"/>
  <rect x="19" y="21" width="1" height="1" fill="#5382a1"/>
  <rect x="20" y="21" width="1" height="1" fill="#5382a1"/>
  <rect x="21" y="21" width="1" height="1" fill="#5382a1"/>
  <rect x="24" y="21" width="1" height="1" fill="#5382a1"/>
  <rect x="10" y="22" width="1" height="1" fill="#52809f"/>
  <rect x="11" y="22" width="1" height="1" fill="#5380a0"/>
  <rect x="12" y="22" width="1" height="1" fill="#52809f"/>
  <rect x="13" y="22" width="1" height="1" fill="#54809e"/>
  <rect x="14" y="22" width="1" height="1" fill="#54809f"/>
  <rect x="15" y="22" width="1" height="1" fill="#54809f"/>
  <rect x="16" y="22" width="1" height="1" fill="#537f9e"/>
  <rect x="17" y="22" width="1" height="1" fill="#537fa1"/>
  <rect x="18" y="22" width="1" height="1" fill="#537fa1"/>
  <rect x="11" y="24" width="1" height="1" fill="#517f9e"/>
  <rect x="12" y="24" width="1" height="1" fill="#517e9e"/>
  <rect x="17" y="24" width="1" height="1" fill="#517e9e"/>
  <rect x="18" y="24" width="1" height="1" fill="#527e9e"/>
  <rect x="19" y="24" width="1" height="1" fill="#5382a1"/>
  <rect x="11" y="25" width="1" height="1" fill="#51809f"/>
  <rect x="12" y="25" width="1" height="1" fill="#537fa0"/>
  <rect x="13" y="25" width="1" height="1" fill="#52809f"/>
  <rect x="14" y="25" width="1" height="1" fill="#54809f"/>
  <rect x="15" y="25" width="1" height="1" fill="#54809f"/>
  <rect x="16" y="25" width="1" height="1" fill="#52809f"/>
  <rect x="17" y="25" width="1" height="1" fill="#5480a0"/>
  <rect x="18" y="25" width="1" height="1" fill="#53819f"/>
  <rect x="5" y="27" width="1" height="1" fill="#52809e"/>
  <rect x="6" y="27" width="1" height="1" fill="#52809f"/>
  <rect x="7" y="27" width="1" height="1" fill="#517f9f"/>
  <rect x="22" y="27" width="1" height="1" fill="#5382a1"/>
  <rect x="23" y="27" width="1" height="1" fill="#5382a1"/>
  <rect x="24" y="27" width="1" height="1" fill="#5382a1"/>
  <rect x="6" y="28" width="1" height="1" fill="#537fa1"/>
  <rect x="7" y="28" width="1" height="1" fill="#52809f"/>
  <rect x="9" y="28" width="1" height="1" fill="#547e9f"/>
  <rect x="10" y="28" width="1" height="1" fill="#54809f"/>
  <rect x="11" y="28" width="1" height="1" fill="#54809f"/>
  <rect x="12" y="28" width="1" height="1" fill="#527f9f"/>
  <rect x="17" y="28" width="1" height="1" fill="#547e9f"/>
  <rect x="18" y="28" width="1" height="1" fill="#54809f"/>
  <rect x="19" y="28" width="1" height="1" fill="#5382a1"/>
  <rect x="20" y="28" width="1" height="1" fill="#5382a1"/>
  <rect x="21" y="28" width="1" height="1" fill="#5382a1"/>
  <rect x="13" y="29" width="1" height="1" fill="#5382a1"/>
  <rect x="14" y="29" width="1" height="1" fill="#5382a1"/>
  <rect x="15" y="29" width="1" height="1" fill="#5382a1"/>
</svg>