<?xml version="1.0" encoding="UTF-8"?>
<svg xmlns="http://www.w3.org/2000/svg" xmlns:xlink="http://www.w3.org/1999/xlink" version="1.1" baseProfile="full" width="1622" height="400" style="position: absolute; left: 0px; top: 0px; user-select: none;"><rect width="1622" height="400" x="0" y="0" fill="none"/><g><path d="M516.5 65L516.5 370" fill="none" stroke="#dbdee4"/><path d="M776.5 65L776.5 370" fill="none" stroke="#dbdee4"/><path d="M1036.5 65L1036.5 370" fill="none" stroke="#dbdee4"/><path d="M1297.5 65L1297.5 370" fill="none" stroke="#dbdee4"/><path d="M1557.5 65L1557.5 370" fill="none" stroke="#dbdee4"/><path d="M516.5 370L516.5 65" fill="none" stroke="#54555a" stroke-linecap="round"/><text dominant-baseline="central" text-anchor="end" xml:space="preserve" transform="translate(508.236 353.0556)" fill="#54555a" style="font-size: 10px; font-family: &quot;Microsoft YaHei&quot;;">computeIfAbsent (guava)</text><text dominant-baseline="central" text-anchor="end" xml:space="preserve" transform="translate(508.236 319.1667)" fill="#54555a" style="font-size: 10px; font-family: &quot;Microsoft YaHei&quot;;">computeIfAbsent (caffeine)</text><text dominant-baseline="central" text-anchor="end" xml:space="preserve" transform="translate(508.236 285.2778)" fill="#54555a" style="font-size: 10px; font-family: &quot;Microsoft YaHei&quot;;">computeIfAbsent (guavaSoft)</text><text dominant-baseline="central" text-anchor="end" xml:space="preserve" transform="translate(508.236 251.3889)" fill="#54555a" style="font-size: 10px; font-family: &quot;Microsoft YaHei&quot;;">computeIfAbsent (guavaWeak)</text><text dominant-baseline="central" text-anchor="end" xml:space="preserve" transform="translate(508.236 217.5)" fill="#54555a" style="font-size: 10px; font-family: &quot;Microsoft YaHei&quot;;">computeIfAbsent (caffeineSoft)</text><text dominant-baseline="central" text-anchor="end" xml:space="preserve" transform="translate(508.236 183.6111)" fill="#54555a" style="font-size: 10px; font-family: &quot;Microsoft YaHei&quot;;">computeIfAbsent (caffeineWeak)</text><text dominant-baseline="central" text-anchor="end" xml:space="preserve" transform="translate(508.236 149.7222)" fill="#54555a" style="font-size: 10px; font-family: &quot;Microsoft YaHei&quot;;">computeIfAbsent (fs-simpleSoft)</text><text dominant-baseline="central" text-anchor="end" xml:space="preserve" transform="translate(508.236 115.8333)" fill="#54555a" style="font-size: 10px; font-family: &quot;Microsoft YaHei&quot;;">computeIfAbsent (fs-simpleWeak)</text><text dominant-baseline="central" text-anchor="end" xml:space="preserve" transform="translate(508.236 81.9444)" fill="#54555a" style="font-size: 10px; font-family: &quot;Microsoft YaHei&quot;;">computeIfAbsent (concurrentHashMap)</text><text dominant-baseline="central" text-anchor="middle" y="5" transform="translate(516.236 378)" fill="#54555a" style="font-size: 10px; font-family: &quot;Microsoft YaHei&quot;;">0</text><text dominant-baseline="central" text-anchor="middle" y="5" transform="translate(776.457 378)" fill="#54555a" style="font-size: 10px; font-family: &quot;Microsoft YaHei&quot;;">20,000</text><text dominant-baseline="central" text-anchor="middle" y="5" transform="translate(1036.678 378)" fill="#54555a" style="font-size: 10px; font-family: &quot;Microsoft YaHei&quot;;">40,000</text><text dominant-baseline="central" text-anchor="middle" y="5" transform="translate(1296.899 378)" fill="#54555a" style="font-size: 10px; font-family: &quot;Microsoft YaHei&quot;;">60,000</text><text dominant-baseline="central" text-anchor="middle" y="5" transform="translate(1557.12 378)" fill="#54555a" style="font-size: 10px; font-family: &quot;Microsoft YaHei&quot;;">80,000</text><path d="M516.236 341.3639l27.8023 0l0 23.3833l-27.8023 0Z" fill="rgb(38,217,38)"/><path d="M516.236 307.475l51.8822 0l0 23.3833l-51.8822 0Z" fill="rgb(47,217,38)"/><path d="M516.236 273.5861l542.3185 0l0 23.3833l-542.3185 0Z" fill="rgb(217,200,38)"/><path d="M516.236 239.6972l559.3425 0l0 23.3833l-559.3425 0Z" fill="rgb(217,194,38)"/><path d="M516.236 205.8083l597.8843 0l0 23.3833l-597.8843 0Z" fill="rgb(217,179,38)"/><path d="M516.236 171.9194l686.2169 0l0 23.3833l-686.2169 0Z" fill="rgb(217,146,38)"/><path d="M516.236 138.0306l917.6854 0l0 23.3833l-917.6854 0Z" fill="rgb(217,58,38)"/><path d="M516.236 104.1417l957.1237 0l0 23.3833l-957.1237 0Z" fill="rgb(217,43,38)"/><path d="M516.236 70.2528l969.8413 0l0 23.3833l-969.8413 0Z" fill="rgb(217,38,38)"/><text dominant-baseline="central" text-anchor="start" transform="translate(549.0383 353.0556)" fill="#333" stroke="rgb(255,255,255)" stroke-width="2" paint-order="stroke" stroke-miterlimit="2" style="font-size: 12px; font-family: &quot;Microsoft YaHei&quot;;">2,136.824</text><text dominant-baseline="central" text-anchor="start" transform="translate(573.1183 319.1667)" fill="#333" stroke="rgb(255,255,255)" stroke-width="2" paint-order="stroke" stroke-miterlimit="2" style="font-size: 12px; font-family: &quot;Microsoft YaHei&quot;;">3,987.553</text><text dominant-baseline="central" text-anchor="start" transform="translate(1063.5546 285.2778)" fill="#333" stroke="rgb(255,255,255)" stroke-width="2" paint-order="stroke" stroke-miterlimit="2" style="font-size: 12px; font-family: &quot;Microsoft YaHei&quot;;">41,681.382</text><text dominant-baseline="central" text-anchor="start" transform="translate(1080.5785 251.3889)" fill="#333" stroke="rgb(255,255,255)" stroke-width="2" paint-order="stroke" stroke-miterlimit="2" style="font-size: 12px; font-family: &quot;Microsoft YaHei&quot;;">42,989.807</text><text dominant-baseline="central" text-anchor="start" transform="translate(1119.1204 217.5)" fill="#333" stroke="rgb(255,255,255)" stroke-width="2" paint-order="stroke" stroke-miterlimit="2" style="font-size: 12px; font-family: &quot;Microsoft YaHei&quot;;">45,952.045</text><text dominant-baseline="central" text-anchor="start" transform="translate(1207.4529 183.6111)" fill="#333" stroke="rgb(255,255,255)" stroke-width="2" paint-order="stroke" stroke-miterlimit="2" style="font-size: 12px; font-family: &quot;Microsoft YaHei&quot;;">52,741.087</text><text dominant-baseline="central" text-anchor="start" transform="translate(1438.9215 149.7222)" fill="#333" stroke="rgb(255,255,255)" stroke-width="2" paint-order="stroke" stroke-miterlimit="2" style="font-size: 12px; font-family: &quot;Microsoft YaHei&quot;;">70,531.239</text><text dominant-baseline="central" text-anchor="start" transform="translate(1478.3598 115.8333)" fill="#333" stroke="rgb(255,255,255)" stroke-width="2" paint-order="stroke" stroke-miterlimit="2" style="font-size: 12px; font-family: &quot;Microsoft YaHei&quot;;">73,562.376</text><text dominant-baseline="central" text-anchor="start" transform="translate(1491.0773 81.9444)" fill="#333" stroke="rgb(255,255,255)" stroke-width="2" paint-order="stroke" stroke-miterlimit="2" style="font-size: 12px; font-family: &quot;Microsoft YaHei&quot;;">74,539.821</text><path d="M1 0A1 1 0 1 1 1 -0.0001" transform="matrix(3,0,0,3,544.3656,353.0556)" fill="rgb(255,107,107)" fill-opacity="0.8"/><path d="M1 0A1 1 0 1 1 1 -0.0001" transform="matrix(3,0,0,3,543.7111,353.0556)" fill="rgb(255,107,107)" fill-opacity="0.8"/><path d="M1 0A1 1 0 1 1 1 -0.0001" transform="matrix(3,0,0,3,569.4844,319.1667)" fill="rgb(255,107,107)" fill-opacity="0.8"/><path d="M1 0A1 1 0 1 1 1 -0.0001" transform="matrix(3,0,0,3,566.7521,319.1667)" fill="rgb(255,107,107)" fill-opacity="0.8"/><path d="M1 0A1 1 0 1 1 1 -0.0001" transform="matrix(3,0,0,3,1106.0579,285.2778)" fill="rgb(255,107,107)" fill-opacity="0.8"/><path d="M1 0A1 1 0 1 1 1 -0.0001" transform="matrix(3,0,0,3,1011.0512,285.2778)" fill="rgb(255,107,107)" fill-opacity="0.8"/><path d="M1 0A1 1 0 1 1 1 -0.0001" transform="matrix(3,0,0,3,1098.1033,251.3889)" fill="rgb(255,107,107)" fill-opacity="0.8"/><path d="M1 0A1 1 0 1 1 1 -0.0001" transform="matrix(3,0,0,3,1053.0538,251.3889)" fill="rgb(255,107,107)" fill-opacity="0.8"/><path d="M1 0A1 1 0 1 1 1 -0.0001" transform="matrix(3,0,0,3,1226.4442,217.5)" fill="rgb(255,107,107)" fill-opacity="0.8"/><path d="M1 0A1 1 0 1 1 1 -0.0001" transform="matrix(3,0,0,3,1001.7965,217.5)" fill="rgb(255,107,107)" fill-opacity="0.8"/><path d="M1 0A1 1 0 1 1 1 -0.0001" transform="matrix(3,0,0,3,1216.5266,183.6111)" fill="rgb(255,107,107)" fill-opacity="0.8"/><path d="M1 0A1 1 0 1 1 1 -0.0001" transform="matrix(3,0,0,3,1188.3793,183.6111)" fill="rgb(255,107,107)" fill-opacity="0.8"/><path d="M1 0A1 1 0 1 1 1 -0.0001" transform="matrix(3,0,0,3,1467.0616,149.7222)" fill="rgb(255,107,107)" fill-opacity="0.8"/><path d="M1 0A1 1 0 1 1 1 -0.0001" transform="matrix(3,0,0,3,1400.7814,149.7222)" fill="rgb(255,107,107)" fill-opacity="0.8"/><path d="M1 0A1 1 0 1 1 1 -0.0001" transform="matrix(3,0,0,3,1489.0098,115.8333)" fill="rgb(255,107,107)" fill-opacity="0.8"/><path d="M1 0A1 1 0 1 1 1 -0.0001" transform="matrix(3,0,0,3,1457.7097,115.8333)" fill="rgb(255,107,107)" fill-opacity="0.8"/><path d="M1 0A1 1 0 1 1 1 -0.0001" transform="matrix(3,0,0,3,1542.4338,81.9444)" fill="rgb(255,107,107)" fill-opacity="0.8"/><path d="M1 0A1 1 0 1 1 1 -0.0001" transform="matrix(3,0,0,3,1429.7209,81.9444)" fill="rgb(255,107,107)" fill-opacity="0.8"/><g clip-path="url(#zr1-c0)"><path d="" fill="none" stroke="rgb(255,107,107)" stroke-width="2" stroke-dasharray="8,4" stroke-linejoin="bevel"/></g><path d="M543.7111 353L544.3656 353" fill="none" stroke="#ff6b6b" stroke-width="2" stroke-dasharray="8,4"/><path d="M566.7521 319L569.4844 319" fill="none" stroke="#ff6b6b" stroke-width="2" stroke-dasharray="8,4"/><path d="M1011.0512 286L1106.0579 286" fill="none" stroke="#ff6b6b" stroke-width="2" stroke-dasharray="8,4"/><path d="M1053.0538 252L1098.1033 252" fill="none" stroke="#ff6b6b" stroke-width="2" stroke-dasharray="8,4"/><path d="M1001.7965 218L1226.4442 218" fill="none" stroke="#ff6b6b" stroke-width="2" stroke-dasharray="8,4"/><path d="M1188.3793 184L1216.5266 184" fill="none" stroke="#ff6b6b" stroke-width="2" stroke-dasharray="8,4"/><path d="M1400.7814 150L1467.0616 150" fill="none" stroke="#ff6b6b" stroke-width="2" stroke-dasharray="8,4"/><path d="M1457.7097 116L1489.0098 116" fill="none" stroke="#ff6b6b" stroke-width="2" stroke-dasharray="8,4"/><path d="M1429.7209 82L1542.4338 82" fill="none" stroke="#ff6b6b" stroke-width="2" stroke-dasharray="8,4"/></g><defs><clipPath id="zr1-c0"><path d="M515 64l1044 0l0 307l-1044 0Z" fill="#000"/></clipPath></defs></svg>