<?xml version="1.0" encoding="UTF-8"?>
<svg xmlns="http://www.w3.org/2000/svg" xmlns:xlink="http://www.w3.org/1999/xlink" version="1.1" baseProfile="full" width="1622" height="400" style="position: absolute; left: 0px; top: 0px; user-select: none;"><rect width="1622" height="400" x="0" y="0" fill="none"/><g><path d="M446.5 65L446.5 370" fill="none" stroke="#dbdee4"/><path d="M668.5 65L668.5 370" fill="none" stroke="#dbdee4"/><path d="M890.5 65L890.5 370" fill="none" stroke="#dbdee4"/><path d="M1112.5 65L1112.5 370" fill="none" stroke="#dbdee4"/><path d="M1335.5 65L1335.5 370" fill="none" stroke="#dbdee4"/><path d="M1557.5 65L1557.5 370" fill="none" stroke="#dbdee4"/><path d="M446.5 370L446.5 65" fill="none" stroke="#54555a" stroke-linecap="round"/><text dominant-baseline="central" text-anchor="end" xml:space="preserve" transform="translate(438.1009 319.1667)" fill="#54555a" style="font-size: 10px; font-family: &quot;Microsoft YaHei&quot;;">copyProperties (apache)</text><text dominant-baseline="central" text-anchor="end" xml:space="preserve" transform="translate(438.1009 217.5)" fill="#54555a" style="font-size: 10px; font-family: &quot;Microsoft YaHei&quot;;">copyProperties (hutool)</text><text dominant-baseline="central" text-anchor="end" xml:space="preserve" transform="translate(438.1009 115.8333)" fill="#54555a" style="font-size: 10px; font-family: &quot;Microsoft YaHei&quot;;">copyProperties (fs)</text><text dominant-baseline="central" text-anchor="middle" y="5" transform="translate(446.1009 378)" fill="#54555a" style="font-size: 10px; font-family: &quot;Microsoft YaHei&quot;;">0</text><text dominant-baseline="central" text-anchor="middle" y="5" transform="translate(668.3047 378)" fill="#54555a" style="font-size: 10px; font-family: &quot;Microsoft YaHei&quot;;">500</text><text dominant-baseline="central" text-anchor="middle" y="5" transform="translate(890.5086 378)" fill="#54555a" style="font-size: 10px; font-family: &quot;Microsoft YaHei&quot;;">1,000</text><text dominant-baseline="central" text-anchor="middle" y="5" transform="translate(1112.7124 378)" fill="#54555a" style="font-size: 10px; font-family: &quot;Microsoft YaHei&quot;;">1,500</text><text dominant-baseline="central" text-anchor="middle" y="5" transform="translate(1334.9162 378)" fill="#54555a" style="font-size: 10px; font-family: &quot;Microsoft YaHei&quot;;">2,000</text><text dominant-baseline="central" text-anchor="middle" y="5" transform="translate(1557.12 378)" fill="#54555a" style="font-size: 10px; font-family: &quot;Microsoft YaHei&quot;;">2,500</text><path d="M446.1009 284.0917l62.7199 0l0 70.15l-62.7199 0Z" fill="rgb(38,217,38)"/><path d="M446.1009 182.425l142.3083 0l0 70.15l-142.3083 0Z" fill="rgb(66,217,38)"/><path d="M446.1009 80.7583l1069.7484 0l0 70.15l-1069.7484 0Z" fill="rgb(217,38,38)"/><text dominant-baseline="central" text-anchor="start" transform="translate(513.8208 319.1667)" fill="#333" stroke="rgb(255,255,255)" stroke-width="2" paint-order="stroke" stroke-miterlimit="2" style="font-size: 12px; font-family: &quot;Microsoft YaHei&quot;;">141.132</text><text dominant-baseline="central" text-anchor="start" transform="translate(593.4092 217.5)" fill="#333" stroke="rgb(255,255,255)" stroke-width="2" paint-order="stroke" stroke-miterlimit="2" style="font-size: 12px; font-family: &quot;Microsoft YaHei&quot;;">320.22</text><text dominant-baseline="central" text-anchor="start" transform="translate(1520.8493 115.8333)" fill="#333" stroke="rgb(255,255,255)" stroke-width="2" paint-order="stroke" stroke-miterlimit="2" style="font-size: 12px; font-family: &quot;Microsoft YaHei&quot;;">2,407.133</text><path d="M1 0A1 1 0 1 1 1 -0.0001" transform="matrix(3,0,0,3,512.6731,319.1667)" fill="rgb(255,107,107)" fill-opacity="0.8"/><path d="M1 0A1 1 0 1 1 1 -0.0001" transform="matrix(3,0,0,3,504.9686,319.1667)" fill="rgb(255,107,107)" fill-opacity="0.8"/><path d="M1 0A1 1 0 1 1 1 -0.0001" transform="matrix(3,0,0,3,593.6236,217.5)" fill="rgb(255,107,107)" fill-opacity="0.8"/><path d="M1 0A1 1 0 1 1 1 -0.0001" transform="matrix(3,0,0,3,583.1948,217.5)" fill="rgb(255,107,107)" fill-opacity="0.8"/><path d="M1 0A1 1 0 1 1 1 -0.0001" transform="matrix(3,0,0,3,1556.8376,115.8333)" fill="rgb(255,107,107)" fill-opacity="0.8"/><path d="M1 0A1 1 0 1 1 1 -0.0001" transform="matrix(3,0,0,3,1474.8611,115.8333)" fill="rgb(255,107,107)" fill-opacity="0.8"/><g clip-path="url(#zr2-c0)"><path d="" fill="none" stroke="rgb(255,107,107)" stroke-width="2" stroke-dasharray="8,4" stroke-linejoin="bevel"/></g><path d="M504.9686 319L512.6731 319" fill="none" stroke="#ff6b6b" stroke-width="2" stroke-dasharray="8,4"/><path d="M583.1948 218L593.6236 218" fill="none" stroke="#ff6b6b" stroke-width="2" stroke-dasharray="8,4"/><path d="M1474.8611 116L1556.8376 116" fill="none" stroke="#ff6b6b" stroke-width="2" stroke-dasharray="8,4"/></g><defs><clipPath id="zr2-c0"><path d="M445 64l1115 0l0 307l-1115 0Z" fill="#000"/></clipPath></defs></svg>