<?xml version="1.0" encoding="UTF-8"?>
<svg xmlns="http://www.w3.org/2000/svg" xmlns:xlink="http://www.w3.org/1999/xlink" version="1.1" baseProfile="full" width="1933" height="350" style="position: absolute; left: 0px; top: 0px; user-select: none;"><rect width="1933" height="350" x="0" y="0" fill="none"/><g><path d="M255.5 65L255.5 318.5" fill="none" stroke="#dbdee4"/><path d="M575.5 65L575.5 318.5" fill="none" stroke="#dbdee4"/><path d="M895.5 65L895.5 318.5" fill="none" stroke="#dbdee4"/><path d="M1215.5 65L1215.5 318.5" fill="none" stroke="#dbdee4"/><path d="M1535.5 65L1535.5 318.5" fill="none" stroke="#dbdee4"/><path d="M1855.5 65L1855.5 318.5" fill="none" stroke="#dbdee4"/><path d="M255.5 318.5L255.5 65" fill="none" stroke="#54555a" stroke-linecap="round"/><text dominant-baseline="central" text-anchor="end" xml:space="preserve" transform="translate(247.2799 276.25)" fill="#54555a" style="font-size: 13px; font-family: &quot;Microsoft YaHei&quot;;">copyProperties (apache)</text><text dominant-baseline="central" text-anchor="end" xml:space="preserve" transform="translate(247.2799 191.75)" fill="#54555a" style="font-size: 13px; font-family: &quot;Microsoft YaHei&quot;;">copyProperties (hutool)</text><text dominant-baseline="central" text-anchor="end" xml:space="preserve" transform="translate(247.2799 107.25)" fill="#54555a" style="font-size: 13px; font-family: &quot;Microsoft YaHei&quot;;">copyProperties (fs)</text><text dominant-baseline="central" text-anchor="middle" y="6.5" transform="translate(255.2799 326.5)" fill="#54555a" style="font-size: 13px; font-family: &quot;Microsoft YaHei&quot;;">0</text><text dominant-baseline="central" text-anchor="middle" y="6.5" transform="translate(575.3599 326.5)" fill="#54555a" style="font-size: 13px; font-family: &quot;Microsoft YaHei&quot;;">500</text><text dominant-baseline="central" text-anchor="middle" y="6.5" transform="translate(895.4399 326.5)" fill="#54555a" style="font-size: 13px; font-family: &quot;Microsoft YaHei&quot;;">1,000</text><text dominant-baseline="central" text-anchor="middle" y="6.5" transform="translate(1215.52 326.5)" fill="#54555a" style="font-size: 13px; font-family: &quot;Microsoft YaHei&quot;;">1,500</text><text dominant-baseline="central" text-anchor="middle" y="6.5" transform="translate(1535.6 326.5)" fill="#54555a" style="font-size: 13px; font-family: &quot;Microsoft YaHei&quot;;">2,000</text><text dominant-baseline="central" text-anchor="middle" y="6.5" transform="translate(1855.68 326.5)" fill="#54555a" style="font-size: 13px; font-family: &quot;Microsoft YaHei&quot;;">2,500</text><path d="M255.2799 247.0975l90.3468 0l0 58.305l-90.3468 0Z" fill="hsl(120, 70%, 50%)"/><path d="M255.2799 162.5975l204.9922 0l0 58.305l-204.9922 0Z" fill="hsl(110.51605121906027, 70%, 50%)"/><path d="M255.2799 78.0975l1540.9506 0l0 58.305l-1540.9506 0Z" fill="hsl(0, 70%, 50%)"/><text dominant-baseline="central" text-anchor="start" transform="translate(365.6266 276.25)" fill="#333" stroke="rgb(255,255,255)" stroke-width="2" paint-order="stroke" stroke-miterlimit="2" style="font-size: 13px; font-family: &quot;Microsoft YaHei&quot;;">141.132</text><text dominant-baseline="central" text-anchor="start" transform="translate(480.2721 191.75)" fill="#333" stroke="rgb(255,255,255)" stroke-width="2" paint-order="stroke" stroke-miterlimit="2" style="font-size: 13px; font-family: &quot;Microsoft YaHei&quot;;">320.22</text><text dominant-baseline="central" text-anchor="start" transform="translate(1816.2305 107.25)" fill="#333" stroke="rgb(255,255,255)" stroke-width="2" paint-order="stroke" stroke-miterlimit="2" style="font-size: 13px; font-family: &quot;Microsoft YaHei&quot;;">2,407.133</text><g clip-path="url(#zr2-c0)"><path d="" fill="none" stroke="#ff6b6b" stroke-width="0.8" stroke-dasharray="3.2,1.6" stroke-linejoin="bevel"/></g><path d="M340.0775 276.5L351.1758 276.5" fill="none" stroke="#ff6b6b" stroke-width="0.8" stroke-dasharray="3.2,1.6"/><path d="M452.7608 192.5L467.7833 192.5" fill="none" stroke="#ff6b6b" stroke-width="0.8" stroke-dasharray="3.2,1.6"/><path d="M1737.1877 107.5L1855.2732 107.5" fill="none" stroke="#ff6b6b" stroke-width="0.8" stroke-dasharray="3.2,1.6"/></g><defs><clipPath id="zr2-c0"><path d="M254 64.6l1603 0l0 254.3l-1603 0Z" fill="#000"/></clipPath></defs></svg>