<svg xmlns="http://www.w3.org/2000/svg" xmlns:xlink="http://www.w3.org/1999/xlink" version="1.1" baseProfile="full" width="1622" height="400" style="position: absolute; left: 0px; top: 0px; user-select: none;"><rect width="1622" height="400" x="0" y="0" fill="none"/><g><path d="M243.5 65L243.5 320" fill="none" stroke="#dbdee4"/><path d="M446.5 65L446.5 320" fill="none" stroke="#dbdee4"/><path d="M649.5 65L649.5 320" fill="none" stroke="#dbdee4"/><path d="M851.5 65L851.5 320" fill="none" stroke="#dbdee4"/><path d="M1054.5 65L1054.5 320" fill="none" stroke="#dbdee4"/><path d="M1257.5 65L1257.5 320" fill="none" stroke="#dbdee4"/><path d="M1460.5 65L1460.5 320" fill="none" stroke="#dbdee4"/><path d="M243.5 320L243.5 65" fill="none" stroke="#54555a" stroke-linecap="round"/><text dominant-baseline="central" text-anchor="end" xml:space="preserve" transform="translate(235.3 277.5)" fill="#54555a" style="font-size: 12px; font-family: &quot;Microsoft YaHei&quot;;">copyProperties (apache)</text><text dominant-baseline="central" text-anchor="end" xml:space="preserve" transform="translate(235.3 192.5)" fill="#54555a" style="font-size: 12px; font-family: &quot;Microsoft YaHei&quot;;">copyProperties (hutool)</text><text dominant-baseline="central" text-anchor="end" xml:space="preserve" transform="translate(235.3 107.5)" fill="#54555a" style="font-size: 12px; font-family: &quot;Microsoft YaHei&quot;;">copyProperties (fs)</text><text dominant-baseline="central" text-anchor="end" transform="matrix(0.866,-0.5,0.5,0.866,243.3,328)" fill="#54555a" style="font-size: 12px; font-family: &quot;Microsoft YaHei&quot;;">0</text><text dominant-baseline="central" text-anchor="end" transform="matrix(0.866,-0.5,0.5,0.866,446.05,328)" fill="#54555a" style="font-size: 12px; font-family: &quot;Microsoft YaHei&quot;;">500</text><text dominant-baseline="central" text-anchor="end" transform="matrix(0.866,-0.5,0.5,0.866,648.8,328)" fill="#54555a" style="font-size: 12px; font-family: &quot;Microsoft YaHei&quot;;">1,000</text><text dominant-baseline="central" text-anchor="end" transform="matrix(0.866,-0.5,0.5,0.866,851.55,328)" fill="#54555a" style="font-size: 12px; font-family: &quot;Microsoft YaHei&quot;;">1,500</text><text dominant-baseline="central" text-anchor="end" transform="matrix(0.866,-0.5,0.5,0.866,1054.3,328)" fill="#54555a" style="font-size: 12px; font-family: &quot;Microsoft YaHei&quot;;">2,000</text><text dominant-baseline="central" text-anchor="end" transform="matrix(0.866,-0.5,0.5,0.866,1257.05,328)" fill="#54555a" style="font-size: 12px; font-family: &quot;Microsoft YaHei&quot;;">2,500</text><text dominant-baseline="central" text-anchor="end" transform="matrix(0.866,-0.5,0.5,0.866,1459.8,328)" fill="#54555a" style="font-size: 12px; font-family: &quot;Microsoft YaHei&quot;;">3,000</text><path d="M243.3 78.175l1078.7836 0l0 58.65l-1078.7836 0Z" fill="rgb(52,152,219)"/><path d="M243.3 248.175l57.6056 0l0 58.65l-57.6056 0Z" fill="#3498db"/><path d="M243.3 163.175l116.5244 0l0 58.65l-116.5244 0Z" fill="#3498db"/><text dominant-baseline="central" text-anchor="start" transform="translate(1327.0836 107.5)" fill="#333" stroke="rgb(255,255,255)" stroke-width="2" paint-order="stroke" stroke-miterlimit="2" style="font-size: 12px; font-family: &quot;Microsoft YaHei&quot;;">2660.4</text><text dominant-baseline="central" text-anchor="start" transform="translate(305.9056 277.5)" fill="#333" stroke="rgb(255,255,255)" stroke-width="2" paint-order="stroke" stroke-miterlimit="2" style="font-size: 12px; font-family: &quot;Microsoft YaHei&quot;;">142.06</text><text dominant-baseline="central" text-anchor="start" transform="translate(364.8244 192.5)" fill="#333" stroke="rgb(255,255,255)" stroke-width="2" paint-order="stroke" stroke-miterlimit="2" style="font-size: 12px; font-family: &quot;Microsoft YaHei&quot;;">287.36</text><path d="M661.5 320L661.5 65" fill="none" stroke="#3498db" stroke-dasharray="4,2"/><path d="M4 0A4 4 0 1 1 4 -0.0004" transform="matrix(-1,0,0,-1,660.9366,320)" fill="#3498db"/><path d="M0 0L5.3333 16L0 12L-5.3333 16L0 0Z" transform="translate(660.9366 65)" fill="#3498db"/><text dominant-baseline="central" text-anchor="middle" transform="translate(660.9366 60)" fill="#333" stroke="rgb(255,255,255)" stroke-width="2" paint-order="stroke" stroke-miterlimit="2" style="font-size: 12px; font-family: &quot;Microsoft YaHei&quot;;" y="-6">1029.93</text></g></svg>