<svg xmlns="http://www.w3.org/2000/svg" xmlns:xlink="http://www.w3.org/1999/xlink" version="1.1" baseProfile="full" width="1622" height="400" style="position: absolute; left: 0px; top: 0px; user-select: none;"><rect width="1622" height="400" x="0" y="0" fill="none"/><g><path d="M243.5 65L243.5 320" fill="none" stroke="#dbdee4"/><path d="M486.5 65L486.5 320" fill="none" stroke="#dbdee4"/><path d="M730.5 65L730.5 320" fill="none" stroke="#dbdee4"/><path d="M973.5 65L973.5 320" fill="none" stroke="#dbdee4"/><path d="M1216.5 65L1216.5 320" fill="none" stroke="#dbdee4"/><path d="M1460.5 65L1460.5 320" fill="none" stroke="#dbdee4"/><path d="M243.5 320L243.5 65" fill="none" stroke="#54555a" stroke-linecap="round"/><text dominant-baseline="central" text-anchor="end" xml:space="preserve" transform="translate(235.3 256.25)" fill="#54555a" style="font-size: 12px; font-family: &quot;Microsoft YaHei&quot;;">request (netty)</text><text dominant-baseline="central" text-anchor="end" xml:space="preserve" transform="translate(235.3 128.75)" fill="#54555a" style="font-size: 12px; font-family: &quot;Microsoft YaHei&quot;;">request (fs)</text><text dominant-baseline="central" text-anchor="end" transform="matrix(0.866,-0.5,0.5,0.866,243.3,328)" fill="#54555a" style="font-size: 12px; font-family: &quot;Microsoft YaHei&quot;;">0</text><text dominant-baseline="central" text-anchor="end" transform="matrix(0.866,-0.5,0.5,0.866,486.6,328)" fill="#54555a" style="font-size: 12px; font-family: &quot;Microsoft YaHei&quot;;">0.3</text><text dominant-baseline="central" text-anchor="end" transform="matrix(0.866,-0.5,0.5,0.866,729.9,328)" fill="#54555a" style="font-size: 12px; font-family: &quot;Microsoft YaHei&quot;;">0.6</text><text dominant-baseline="central" text-anchor="end" transform="matrix(0.866,-0.5,0.5,0.866,973.2,328)" fill="#54555a" style="font-size: 12px; font-family: &quot;Microsoft YaHei&quot;;">0.9</text><text dominant-baseline="central" text-anchor="end" transform="matrix(0.866,-0.5,0.5,0.866,1216.5,328)" fill="#54555a" style="font-size: 12px; font-family: &quot;Microsoft YaHei&quot;;">1.2</text><text dominant-baseline="central" text-anchor="end" transform="matrix(0.866,-0.5,0.5,0.866,1459.8,328)" fill="#54555a" style="font-size: 12px; font-family: &quot;Microsoft YaHei&quot;;">1.5</text><path d="M243.3 212.2625l813.2879 0l0 87.975l-813.2879 0Z" fill="#3498db"/><path d="M243.3 84.7625l971.3163 0l0 87.975l-971.3163 0Z" fill="rgb(52,152,219)"/><text dominant-baseline="central" text-anchor="start" transform="translate(1061.5879 256.25)" fill="#333" stroke="rgb(255,255,255)" stroke-width="2" paint-order="stroke" stroke-miterlimit="2" style="font-size: 12px; font-family: &quot;Microsoft YaHei&quot;;">1.0028</text><text dominant-baseline="central" text-anchor="start" transform="translate(1219.6163 128.75)" fill="#333" stroke="rgb(255,255,255)" stroke-width="2" paint-order="stroke" stroke-miterlimit="2" style="font-size: 12px; font-family: &quot;Microsoft YaHei&quot;;">1.1977</text><path d="M1 0A1 1 0 1 1 1 -0.0001" transform="matrix(0,0,0,0,1117.4781,256.25)" fill="none" fill-opacity="0.8"/><path d="M1 0A1 1 0 1 1 1 -0.0001" transform="matrix(0,0,0,0,1275.2735,128.75)" fill="none" fill-opacity="0.8"/><path d="M1135.5 320L1135.5 65" fill="none" stroke="#3498db" stroke-dasharray="4,2"/><path d="M4 0A4 4 0 1 1 4 -0.0004" transform="matrix(-1,0,0,-1,1135.4,320)" fill="#3498db"/><path d="M0 0L5.3333 16L0 12L-5.3333 16L0 0Z" transform="translate(1135.4 65)" fill="#3498db"/><path d="M995.6978 256.5L1117.4781 256.5" fill="none" stroke="#e74c3c"/><path d="M1153.959 129.5L1275.2735 129.5" fill="none" stroke="#e74c3c"/><text dominant-baseline="central" text-anchor="middle" transform="translate(1135.4 60)" fill="#333" stroke="rgb(255,255,255)" stroke-width="2" paint-order="stroke" stroke-miterlimit="2" style="font-size: 12px; font-family: &quot;Microsoft YaHei&quot;;" y="-6">1.1</text></g></svg>