<?xml version="1.0" encoding="UTF-8"?>
<svg xmlns="http://www.w3.org/2000/svg" xmlns:xlink="http://www.w3.org/1999/xlink" version="1.1" baseProfile="full" width="1622" height="400" style="position: absolute; left: 0px; top: 0px; user-select: none;"><rect width="1622" height="400" x="0" y="0" fill="none"/><g><path d="M400.5 65L400.5 370" fill="none" stroke="#dbdee4"/><path d="M593.5 65L593.5 370" fill="none" stroke="#dbdee4"/><path d="M786.5 65L786.5 370" fill="none" stroke="#dbdee4"/><path d="M979.5 65L979.5 370" fill="none" stroke="#dbdee4"/><path d="M1171.5 65L1171.5 370" fill="none" stroke="#dbdee4"/><path d="M1364.5 65L1364.5 370" fill="none" stroke="#dbdee4"/><path d="M1557.5 65L1557.5 370" fill="none" stroke="#dbdee4"/><path d="M400.5 370L400.5 65" fill="none" stroke="#54555a" stroke-linecap="round"/><text dominant-baseline="central" text-anchor="end" xml:space="preserve" transform="translate(392.685 293.75)" fill="#54555a" style="font-size: 10px; font-family: &quot;Microsoft YaHei&quot;;">request (netty)</text><text dominant-baseline="central" text-anchor="end" xml:space="preserve" transform="translate(392.685 141.25)" fill="#54555a" style="font-size: 10px; font-family: &quot;Microsoft YaHei&quot;;">request (fs)</text><text dominant-baseline="central" text-anchor="middle" y="5" transform="translate(400.685 378)" fill="#54555a" style="font-size: 10px; font-family: &quot;Microsoft YaHei&quot;;">0</text><text dominant-baseline="central" text-anchor="middle" y="5" transform="translate(593.4242 378)" fill="#54555a" style="font-size: 10px; font-family: &quot;Microsoft YaHei&quot;;">0.5</text><text dominant-baseline="central" text-anchor="middle" y="5" transform="translate(786.1634 378)" fill="#54555a" style="font-size: 10px; font-family: &quot;Microsoft YaHei&quot;;">1</text><text dominant-baseline="central" text-anchor="middle" y="5" transform="translate(978.9025 378)" fill="#54555a" style="font-size: 10px; font-family: &quot;Microsoft YaHei&quot;;">1.5</text><text dominant-baseline="central" text-anchor="middle" y="5" transform="translate(1171.6417 378)" fill="#54555a" style="font-size: 10px; font-family: &quot;Microsoft YaHei&quot;;">2</text><text dominant-baseline="central" text-anchor="middle" y="5" transform="translate(1364.3808 378)" fill="#54555a" style="font-size: 10px; font-family: &quot;Microsoft YaHei&quot;;">2.5</text><text dominant-baseline="central" text-anchor="middle" y="5" transform="translate(1557.12 378)" fill="#54555a" style="font-size: 10px; font-family: &quot;Microsoft YaHei&quot;;">3</text><path d="M400.685 241.1375l959.5401 0l0 105.225l-959.5401 0Z" fill="rgb(38,217,38)"/><path d="M400.685 88.6375l1001.9788 0l0 105.225l-1001.9788 0Z" fill="rgb(217,38,38)"/><text dominant-baseline="central" text-anchor="start" transform="translate(1365.2251 293.75)" fill="#333" stroke="rgb(255,255,255)" stroke-width="2" paint-order="stroke" stroke-miterlimit="2" style="font-size: 12px; font-family: &quot;Microsoft YaHei&quot;;">2.489</text><text dominant-baseline="central" text-anchor="start" transform="translate(1407.6639 141.25)" fill="#333" stroke="rgb(255,255,255)" stroke-width="2" paint-order="stroke" stroke-miterlimit="2" style="font-size: 12px; font-family: &quot;Microsoft YaHei&quot;;">2.599</text><path d="M1 0A1 1 0 1 1 1 -0.0001" transform="matrix(3,0,0,3,1370.9688,293.75)" fill="rgb(255,107,107)" fill-opacity="0.8"/><path d="M1 0A1 1 0 1 1 1 -0.0001" transform="matrix(3,0,0,3,1349.4814,293.75)" fill="rgb(255,107,107)" fill-opacity="0.8"/><path d="M1 0A1 1 0 1 1 1 -0.0001" transform="matrix(3,0,0,3,1425.4715,141.25)" fill="rgb(255,107,107)" fill-opacity="0.8"/><path d="M1 0A1 1 0 1 1 1 -0.0001" transform="matrix(3,0,0,3,1379.8562,141.25)" fill="rgb(255,107,107)" fill-opacity="0.8"/><g clip-path="url(#zr5-c0)"><path d="" fill="none" stroke="rgb(255,107,107)" stroke-width="2" stroke-dasharray="8,4" stroke-linejoin="bevel"/></g><path d="M1349.4814 294L1370.9688 294" fill="none" stroke="#ff6b6b" stroke-width="2" stroke-dasharray="8,4"/><path d="M1379.8562 142L1425.4715 142" fill="none" stroke="#ff6b6b" stroke-width="2" stroke-dasharray="8,4"/></g><defs><clipPath id="zr5-c0"><path d="M399 64l1160 0l0 307l-1160 0Z" fill="#000"/></clipPath></defs></svg>