<?xml version="1.0" encoding="UTF-8"?>
<svg xmlns="http://www.w3.org/2000/svg" xmlns:xlink="http://www.w3.org/1999/xlink" version="1.1" baseProfile="full" width="1933" height="350" style="position: absolute; left: 0px; top: 0px; user-select: none;"><rect width="1933" height="350" x="0" y="0" fill="none"/><g><path d="M196.5 65L196.5 318.5" fill="none" stroke="#dbdee4"/><path d="M472.5 65L472.5 318.5" fill="none" stroke="#dbdee4"/><path d="M749.5 65L749.5 318.5" fill="none" stroke="#dbdee4"/><path d="M1026.5 65L1026.5 318.5" fill="none" stroke="#dbdee4"/><path d="M1302.5 65L1302.5 318.5" fill="none" stroke="#dbdee4"/><path d="M1579.5 65L1579.5 318.5" fill="none" stroke="#dbdee4"/><path d="M1855.5 65L1855.5 318.5" fill="none" stroke="#dbdee4"/><path d="M196.5 318.5L196.5 65" fill="none" stroke="#54555a" stroke-linecap="round"/><text dominant-baseline="central" text-anchor="end" xml:space="preserve" transform="translate(187.8531 255.125)" fill="#54555a" style="font-size: 13px; font-family: &quot;Microsoft YaHei&quot;;">request (netty)</text><text dominant-baseline="central" text-anchor="end" xml:space="preserve" transform="translate(187.8531 128.375)" fill="#54555a" style="font-size: 13px; font-family: &quot;Microsoft YaHei&quot;;">request (fs)</text><text dominant-baseline="central" text-anchor="middle" y="6.5" transform="translate(195.8531 326.5)" fill="#54555a" style="font-size: 13px; font-family: &quot;Microsoft YaHei&quot;;">0</text><text dominant-baseline="central" text-anchor="middle" y="6.5" transform="translate(472.4909 326.5)" fill="#54555a" style="font-size: 13px; font-family: &quot;Microsoft YaHei&quot;;">0.5</text><text dominant-baseline="central" text-anchor="middle" y="6.5" transform="translate(749.1288 326.5)" fill="#54555a" style="font-size: 13px; font-family: &quot;Microsoft YaHei&quot;;">1</text><text dominant-baseline="central" text-anchor="middle" y="6.5" transform="translate(1025.7666 326.5)" fill="#54555a" style="font-size: 13px; font-family: &quot;Microsoft YaHei&quot;;">1.5</text><text dominant-baseline="central" text-anchor="middle" y="6.5" transform="translate(1302.4044 326.5)" fill="#54555a" style="font-size: 13px; font-family: &quot;Microsoft YaHei&quot;;">2</text><text dominant-baseline="central" text-anchor="middle" y="6.5" transform="translate(1579.0422 326.5)" fill="#54555a" style="font-size: 13px; font-family: &quot;Microsoft YaHei&quot;;">2.5</text><text dominant-baseline="central" text-anchor="middle" y="6.5" transform="translate(1855.68 326.5)" fill="#54555a" style="font-size: 13px; font-family: &quot;Microsoft YaHei&quot;;">3</text><path d="M195.8531 211.3963l1377.2244 0l0 87.4575l-1377.2244 0Z" fill="hsl(120, 70%, 50%)"/><path d="M195.8531 84.6462l1438.1365 0l0 87.4575l-1438.1365 0Z" fill="rgb(217,38,38)"/><text dominant-baseline="central" text-anchor="start" transform="translate(1593.0775 255.125)" fill="#333" stroke="rgb(255,255,255)" stroke-width="2" paint-order="stroke" stroke-miterlimit="2" style="font-size: 13px; font-family: &quot;Microsoft YaHei&quot;;">2.489</text><text dominant-baseline="central" text-anchor="start" transform="translate(1653.9897 128.375)" fill="#333" stroke="rgb(255,255,255)" stroke-width="2" paint-order="stroke" stroke-miterlimit="2" style="font-size: 13px; font-family: &quot;Microsoft YaHei&quot;;">2.599</text><g clip-path="url(#zr5-c0)"><path d="" fill="none" stroke="rgb(255,107,107)" stroke-width="0.8" stroke-dasharray="3.2,1.6" stroke-linejoin="bevel"/></g><path d="M1557.6571 255.5L1588.4979 255.5" fill="none" stroke="#ff6b6b" stroke-width="0.8" stroke-dasharray="3.2,1.6"/><path d="M1601.2539 128.5L1666.7254 128.5" fill="none" stroke="#ff6b6b" stroke-width="0.8" stroke-dasharray="3.2,1.6"/></g><defs><clipPath id="zr5-c0"><path d="M195 64.6l1662 0l0 254.3l-1662 0Z" fill="#000"/></clipPath></defs></svg>