<?xml version="1.0" encoding="UTF-8"?>
<svg xmlns="http://www.w3.org/2000/svg" xmlns:xlink="http://www.w3.org/1999/xlink" version="1.1" baseProfile="full" width="1622" height="400" style="position: absolute; left: 0px; top: 0px; user-select: none;"><rect width="1622" height="400" x="0" y="0" fill="none"/><g><path d="M400.5 65L400.5 370" fill="none" stroke="#dbdee4"/><path d="M632.5 65L632.5 370" fill="none" stroke="#dbdee4"/><path d="M863.5 65L863.5 370" fill="none" stroke="#dbdee4"/><path d="M1094.5 65L1094.5 370" fill="none" stroke="#dbdee4"/><path d="M1326.5 65L1326.5 370" fill="none" stroke="#dbdee4"/><path d="M1557.5 65L1557.5 370" fill="none" stroke="#dbdee4"/><path d="M400.5 370L400.5 65" fill="none" stroke="#54555a" stroke-linecap="round"/><text dominant-baseline="central" text-anchor="end" xml:space="preserve" transform="translate(392.685 293.75)" fill="#54555a" style="font-size: 10px; font-family: &quot;Microsoft YaHei&quot;;">request (netty)</text><text dominant-baseline="central" text-anchor="end" xml:space="preserve" transform="translate(392.685 141.25)" fill="#54555a" style="font-size: 10px; font-family: &quot;Microsoft YaHei&quot;;">request (fs)</text><text dominant-baseline="central" text-anchor="middle" y="5" transform="translate(400.685 378)" fill="#54555a" style="font-size: 10px; font-family: &quot;Microsoft YaHei&quot;;">0</text><text dominant-baseline="central" text-anchor="middle" y="5" transform="translate(631.972 378)" fill="#54555a" style="font-size: 10px; font-family: &quot;Microsoft YaHei&quot;;">0.3</text><text dominant-baseline="central" text-anchor="middle" y="5" transform="translate(863.259 378)" fill="#54555a" style="font-size: 10px; font-family: &quot;Microsoft YaHei&quot;;">0.6</text><text dominant-baseline="central" text-anchor="middle" y="5" transform="translate(1094.546 378)" fill="#54555a" style="font-size: 10px; font-family: &quot;Microsoft YaHei&quot;;">0.9</text><text dominant-baseline="central" text-anchor="middle" y="5" transform="translate(1325.833 378)" fill="#54555a" style="font-size: 10px; font-family: &quot;Microsoft YaHei&quot;;">1.2</text><text dominant-baseline="central" text-anchor="middle" y="5" transform="translate(1557.12 378)" fill="#54555a" style="font-size: 10px; font-family: &quot;Microsoft YaHei&quot;;">1.5</text><path d="M400.685 241.1375l773.1316 0l0 105.225l-773.1316 0Z" fill="hsl(120, 70%, 50%)"/><path d="M400.685 88.6375l923.3572 0l0 105.225l-923.3572 0Z" fill="hsl(0, 70%, 50%)"/><text dominant-baseline="central" text-anchor="start" transform="translate(1178.8167 293.75)" fill="#333" stroke="rgb(255,255,255)" stroke-width="2" paint-order="stroke" stroke-miterlimit="2" style="font-size: 12px; font-family: &quot;Microsoft YaHei&quot;;">1.003</text><text dominant-baseline="central" text-anchor="start" transform="translate(1329.0423 141.25)" fill="#333" stroke="rgb(255,255,255)" stroke-width="2" paint-order="stroke" stroke-miterlimit="2" style="font-size: 12px; font-family: &quot;Microsoft YaHei&quot;;">1.198</text><path d="M1 0A1 1 0 1 1 1 -0.0001" transform="matrix(3,0,0,3,1231.7004,293.75)" fill="#ff6b6b" fill-opacity="0.8"/><path d="M1 0A1 1 0 1 1 1 -0.0001" transform="matrix(3,0,0,3,1115.9329,293.75)" fill="#ff6b6b" fill-opacity="0.8"/><path d="M1 0A1 1 0 1 1 1 -0.0001" transform="matrix(3,0,0,3,1381.7046,141.25)" fill="#ff6b6b" fill-opacity="0.8"/><path d="M1 0A1 1 0 1 1 1 -0.0001" transform="matrix(3,0,0,3,1266.38,141.25)" fill="#ff6b6b" fill-opacity="0.8"/><g clip-path="url(#zr3-c0)"><path d="" fill="none" stroke="#ff6b6b" stroke-width="2" stroke-dasharray="8,4" stroke-linejoin="bevel"/></g><path d="M1115.9329 294L1231.7004 294" fill="none" stroke="#ff6b6b" stroke-width="2" stroke-dasharray="8,4"/><path d="M1266.38 142L1381.7046 142" fill="none" stroke="#ff6b6b" stroke-width="2" stroke-dasharray="8,4"/></g><defs><clipPath id="zr3-c0"><path d="M399 64l1160 0l0 307l-1160 0Z" fill="#000"/></clipPath></defs></svg>