<svg width="64" height="64" viewBox="0 0 64 64" xmlns="http://www.w3.org/2000/svg">
  <title>fs-logo</title>
  <g>
    <path stroke-width="0" fill="#3f3f3f" stroke-linecap="round" stroke-linejoin="round"
          d="
          M32,32 m-29,-32
          l58,0 a3,3,0,0,1,3,3
          l0,58 a3,3,0,0,1,-3,3
          l-58,0 a3,3,0,0,1,-3,-3
          l0,-58 a3,3,0,0,1,3,-3
          Z
          "
    />
  </g>
  <g stroke="#fefefe" stroke-width="3" fill="none" stroke-linecap="round" stroke-linejoin="round"
     transform="translate(-12, -1)"
     opacity="1"
  >
    <circle cx="32" cy="12" r="6"/>
    <path d="
            M32,32 m0,-14
            a20,36,0,0,1,-5,44
            "
    />
    <path d="
            M32,32 m8,-6
            a18,64,-10,0,1,-14,0
            "
    />
  </g>
  <g stroke="#fefefe" stroke-width="3" fill="none" stroke-linecap="round" stroke-linejoin="round"
     transform="translate(12, -1)"
  >
    <path d="
          M32,32 m2,-8
          a32,24,0,0,0,-1,16
          a32,24,0,0,1,-2,22
          "
    />
    <path d="
          M32,32 m-6,-4
          a28,24,0,0,0,0,10
          m14,-10
          a32,16,0,0,0,0,10
          m-12,10
          a32,14,0,0,1,-2,10
          m16,-10
          a24,18,0,0,1,-2,12
          "
    />
  </g>
</svg>